# xmcd
#
# Track frame offsets:
#	150
#	22607
#	46410
#	66944
#	85838
#
# Disc length: 1525 seconds
#
# Revision: 1
# Processed by: cddbd v1.5.2PL0 Copyright (c) Steve Scherf et al.
# Submitted via: audiograbber 1.83.01
#
DISCID=3205f305
DTITLE=Jody Copper - the troubadour
DYEAR=2015
DGENRE=singer songwrighter
TTITLE0=you can´t make it on your own
TTITLE1=by your side
TTITLE2=living in hell
TTITLE3=thought of love*
TTITLE4=the grieving
EXTD=
EXTT0=
EXTT1=
EXTT2=
EXTT3=
EXTT4=
PLAYORDER=
